<?xml version="1.0" encoding="iso-8859-1"?>
<!-- Generator: Adobe Illustrator 19.0.0, SVG Export Plug-In . SVG Version: 6.00 Build 0)  -->
<svg version="1.1" id="Layer_1" xmlns="http://www.w3.org/2000/svg" xmlns:xlink="http://www.w3.org/1999/xlink" x="0px" y="0px"
	 viewBox="0 0 512 512" style="enable-background:new 0 0 512 512;" xml:space="preserve">
<g>
	<g>
		<path d="M121.018,362.02c-24.81,0-44.994,20.184-44.994,44.994c0,24.81,20.184,44.994,44.994,44.994s44.994-20.184,44.994-44.994
			C166.012,382.204,145.828,362.02,121.018,362.02z M121.018,422.012c-8.27,0-14.998-6.728-14.998-14.998
			c0-8.27,6.728-14.998,14.998-14.998s14.998,6.728,14.998,14.998C136.016,415.284,129.289,422.012,121.018,422.012z"/>
	</g>
</g>
<g>
	<g>
		<path d="M390.982,302.027c-6.317,0-12.506,0.562-18.52,1.636l-31.63-31.63l85.303-85.303
			c43.035-43.036,46.313-110.038,11.242-156.707c-5.479-7.293-16.156-8.036-22.595-1.596L256.001,187.204L97.218,28.428
			c-6.464-6.463-17.135-5.671-22.595,1.595c-35.065,46.66-31.8,113.665,11.242,156.707l85.304,85.302l-31.632,31.63
			c-6.013-1.075-12.201-1.636-18.519-1.636c-57.889,0-104.986,47.097-104.986,104.986c0,57.889,47.097,104.986,104.986,104.986
			c57.889,0,104.986-47.097,104.986-104.986c0-6.316-0.561-12.503-1.636-18.516L256,356.865l31.631,31.632
			c-1.074,6.012-1.635,12.199-1.635,18.516c0,57.89,47.097,104.987,104.986,104.987s104.986-47.097,104.986-104.986
			S448.872,302.027,390.982,302.027z M107.076,165.52c-28.207-28.207-33.288-69.767-17.62-102.435L234.79,208.414l-42.41,42.409
			L107.076,165.52z M121.018,482.004c-41.35,0-74.99-33.641-74.99-74.99c0-41.35,33.641-74.99,74.99-74.99
			c39.972,0,74.99,33.886,74.99,74.99C196.008,448.363,162.368,482.004,121.018,482.004z M213.356,357.09
			c-9.722-17.91-24.503-32.691-42.411-42.413l251.601-251.59c15.525,32.37,10.823,73.991-17.619,102.434l-95.896,95.895
			c-0.004,0.004-0.009,0.008-0.013,0.012C305.866,264.578,216.843,353.603,213.356,357.09z M277.21,335.655l42.411-42.411
			l21.434,21.433c-17.91,9.723-32.69,24.504-42.411,42.413L277.21,335.655z M390.982,482.004c-41.35,0-74.99-33.641-74.99-74.99
			c0-40.423,34.282-74.99,74.99-74.99c41.351,0,74.99,33.64,74.99,74.99C465.972,448.363,432.332,482.004,390.982,482.004z"/>
	</g>
</g>
<g>
	<g>
		<path d="M390.982,362.02c-24.81,0-44.994,20.184-44.994,44.994c0,24.81,20.184,44.994,44.994,44.994s44.994-20.184,44.994-44.994
			C435.976,382.204,415.792,362.02,390.982,362.02z M390.982,422.012c-8.27,0-14.998-6.728-14.998-14.998
			c0-8.27,6.728-14.998,14.998-14.998s14.998,6.728,14.998,14.998C405.98,415.284,399.252,422.012,390.982,422.012z"/>
	</g>
</g>
<g>
	<g>
		<circle cx="255.247" cy="270.965" r="14.998"/>
	</g>
</g>
<g>
	<g>
		<path d="M255,0c-8.283,0-14.998,6.715-14.998,14.998v30.996c0,8.283,6.715,14.998,14.998,14.998
			c8.283,0,14.998-6.715,14.998-14.998V14.998C269.998,6.715,263.283,0,255,0z"/>
	</g>
</g>
<g>
	<g>
		<path d="M255,90.988c-8.283,0-14.998,6.715-14.998,14.998v29.996c0,8.283,6.715,14.998,14.998,14.998
			c8.283,0,14.998-6.715,14.998-14.998v-29.996C269.998,97.703,263.283,90.988,255,90.988z"/>
	</g>
</g>
<g>
</g>
<g>
</g>
<g>
</g>
<g>
</g>
<g>
</g>
<g>
</g>
<g>
</g>
<g>
</g>
<g>
</g>
<g>
</g>
<g>
</g>
<g>
</g>
<g>
</g>
<g>
</g>
<g>
</g>
</svg>
