<?xml version="1.0" encoding="iso-8859-1"?>
<!-- Generator: Adobe Illustrator 19.0.0, SVG Export Plug-In . SVG Version: 6.00 Build 0)  -->
<svg version="1.1" id="Capa_1" xmlns="http://www.w3.org/2000/svg" xmlns:xlink="http://www.w3.org/1999/xlink" x="0px" y="0px"
	 viewBox="0 0 512 512" style="enable-background:new 0 0 512 512;" xml:space="preserve">
<g>
	<g>
		<path d="M407.224,289.501c-6.376,0-12.552,0.787-18.614,1.876L113.005,16.786c-6.548-6.548-17.175-5.606-22.615,1.598
			c-35.084,46.69-31.815,113.739,11.256,156.81l202.337,201.336c-1.023,5.883-1.817,11.852-1.817,18.028
			c0,58.022,47.036,105.058,105.058,105.058S512,452.58,512,394.559C512,336.537,465.245,289.501,407.224,289.501z M256.141,259.484
			c-8.289,0-15.008-6.72-15.008-15.008s6.72-15.008,15.008-15.008c8.289,0,15.008,6.72,15.008,15.008
			S264.43,259.484,256.141,259.484z M407.224,439.583c-24.867,0-45.025-20.158-45.025-45.025s20.158-45.025,45.025-45.025
			s45.025,20.158,45.025,45.025S432.091,439.583,407.224,439.583z"/>
	</g>
</g>
<g>
	<g>
		<path d="M234.665,351.659l-84.891-84.891l-24.746,24.746c-6.477-1.248-13.13-2.013-19.971-2.013
			C47.036,289.501,0,336.537,0,394.559c0,58.022,47.036,105.058,105.058,105.058s106.058-47.036,106.058-105.058
			c0-5.71-0.802-11.207-1.68-16.67L234.665,351.659z M105.058,439.583c-24.867,0-45.025-20.158-45.025-45.025
			s20.158-45.025,45.025-45.025s45.025,20.158,45.025,45.025S129.925,439.583,105.058,439.583z"/>
	</g>
</g>
<g>
	<g>
		<path d="M423.386,18.383c-5.439-7.204-16.067-8.146-22.615-1.598L278.109,139.438L363,224.325l49.13-49.131
			C455.191,132.133,458.48,65.087,423.386,18.383z"/>
	</g>
</g>
<g>
</g>
<g>
</g>
<g>
</g>
<g>
</g>
<g>
</g>
<g>
</g>
<g>
</g>
<g>
</g>
<g>
</g>
<g>
</g>
<g>
</g>
<g>
</g>
<g>
</g>
<g>
</g>
<g>
</g>
</svg>
