<?xml version="1.0" encoding="iso-8859-1"?>
<!-- Generator: Adobe Illustrator 19.0.0, SVG Export Plug-In . SVG Version: 6.00 Build 0)  -->
<svg version="1.1" id="Layer_1" xmlns="http://www.w3.org/2000/svg" xmlns:xlink="http://www.w3.org/1999/xlink" x="0px" y="0px"
	 viewBox="0 0 512 512" style="enable-background:new 0 0 512 512;" xml:space="preserve">
<g>
	<path style="fill:#CCCCCC;" d="M300.502,398.344h-1.176c-10.849,0-20.951,3.235-29.414,8.776l0.005-30.645l-24.447-9.859
		l-0.01,85.584l0.007-0.006c0,0.002,0,0.005,0,0.009c0,29.698,24.161,53.858,53.859,53.858h1.176
		c29.698,0,53.859-24.16,53.859-53.858S330.2,398.344,300.502,398.344z M300.502,481.611h-1.176
		c-16.217,0-29.41-13.192-29.41-29.409c0-16.217,13.194-29.41,29.41-29.41h1.176c16.217,0,29.41,13.192,29.41,29.41
		C329.913,468.418,316.719,481.611,300.502,481.611z"/>
	<polygon style="fill:#CCCCCC;" points="322.015,261.695 314.619,277.99 269.915,376.469 214.343,277.99 205.151,261.695 	"/>
</g>
<polygon style="fill:#F95428;" points="257.692,261.689 322.019,261.689 512,261.689 512,5.94 111.906,5.94 111.906,261.689 
	205.147,261.689 "/>
<g>
	<polygon style="fill:#B3B3B3;" points="322.015,261.695 314.619,277.99 214.343,277.99 205.151,261.695 	"/>
	<path style="fill:#B3B3B3;" d="M257.686,53.712l-69.303,237.752c-7.563,25.948-21.637,49.53-40.882,68.507l0,0
		c-2.104-10.299-7.198-19.743-14.861-27.3c-21.198-20.901-55.684-20.897-76.877,0l-39.807,39.253C5.667,382.07,0,395.617,0,410.067
		s5.667,27.997,15.956,38.143c10.598,10.449,24.519,15.675,38.438,15.675c13.921,0,27.841-5.225,38.438-15.675l39.807-39.252
		c0.001-0.001,0.002-0.002,0.004-0.004v0.005l61.372-60.517l75.903,28.033L257.686,53.712z M115.474,391.55l-39.807,39.253
		c-11.728,11.564-30.811,11.567-42.544,0c-5.594-5.516-8.674-12.881-8.674-20.736s3.081-15.22,8.674-20.735l39.807-39.253
		c5.864-5.783,13.569-8.674,21.271-8.674s15.407,2.891,21.271,8.674c5.594,5.516,8.674,12.879,8.674,20.735
		S121.068,386.034,115.474,391.55z"/>
</g>
<line style="fill:none;stroke:#000000;stroke-width:20;stroke-linecap:round;stroke-linejoin:round;stroke-miterlimit:10;" x1="226.417" y1="317.537" x2="226.417" y2="317.537"/>
<g>
</g>
<g>
</g>
<g>
</g>
<g>
</g>
<g>
</g>
<g>
</g>
<g>
</g>
<g>
</g>
<g>
</g>
<g>
</g>
<g>
</g>
<g>
</g>
<g>
</g>
<g>
</g>
<g>
</g>
</svg>
