<?xml version="1.0" encoding="iso-8859-1"?>
<!-- Generator: Adobe Illustrator 19.0.0, SVG Export Plug-In . SVG Version: 6.00 Build 0)  -->
<svg version="1.1" id="Capa_1" xmlns="http://www.w3.org/2000/svg" xmlns:xlink="http://www.w3.org/1999/xlink" x="0px" y="0px"
	 viewBox="0 0 464 464" style="enable-background:new 0 0 464 464;" xml:space="preserve">
<g>
	<g>
		<path d="M351.535,332.492l-34.718-34.72l35.951-35.888L464,261.9L463.871,5.932L128.031,5.9L0,133.932L128.031,261.9h62.434
			l35.824,35.872l-34.721,34.72c-21.313-5.632-44.897-0.352-61.6,16.352c-24.992,24.992-24.992,65.52,0,90.513
			c24.992,24.991,65.519,24.991,90.512,0c16.703-16.705,21.984-40.289,16.351-61.601l34.718-34.72l34.721,34.72
			c-5.631,21.312-0.351,44.896,16.354,61.601c24.99,24.991,65.519,24.991,90.512,0c24.992-24.993,24.992-65.521,0-90.513
			C396.432,332.14,372.848,326.86,351.535,332.492z M134.656,245.948L22.625,133.916L134.656,21.9L272,21.836V69.9h16V21.836
			l160,0.016V245.9l-79.408,0.08l21.568-21.568V133.9L287.535,236.524V197.98H272v47.984L134.656,245.948z M401.809,428.06
			c-18.721,18.721-49.168,18.721-67.889,0c-12.08-12.079-16.641-29.36-12.191-46.208l2.351-8.896l-52.545-52.544l-52.543,52.544
			l2.351,8.896c4.45,16.848-0.111,34.112-12.191,46.208c-18.721,18.721-49.168,18.721-67.889,0
			c-18.721-18.72-18.721-49.168,0-67.888c12.08-12.08,29.362-16.64,46.209-12.192l8.894,2.352l52.545-52.545l-35.824-35.824h45.264
			l13.199,13.2L374.176,172.54v45.247l-80,80l52.527,52.545l8.897-2.352c16.848-4.448,34.111,0.112,46.209,12.192
			C420.527,378.892,420.527,409.34,401.809,428.06z"/>
	</g>
</g>
<g>
	<g>
		<circle cx="124.48" cy="133.9" r="24"/>
	</g>
</g>
<g>
	<g>
		<path d="M390.496,371.5c-12.496-12.496-32.752-12.496-45.248,0c-12.496,12.496-12.496,32.752,0,45.247
			c12.481,12.496,32.752,12.496,45.248,0C402.992,404.251,402.992,383.995,390.496,371.5z M379.168,405.42
			c-6.24,6.24-16.385,6.24-22.625,0c-6.238-6.24-6.222-16.384,0-22.624c6.24-6.24,16.385-6.24,22.625,0
			S385.408,399.18,379.168,405.42z"/>
	</g>
</g>
<g>
	<g>
		<path d="M197.824,371.484c-12.496-12.496-32.752-12.496-45.248,0c-12.496,12.496-12.496,32.752,0,45.248
			c12.496,12.496,32.752,12.496,45.248,0C210.32,404.236,210.32,383.98,197.824,371.484z M186.512,405.436
			c-6.24,6.24-16.383,6.24-22.625,0c-6.238-6.24-6.238-16.384,0-22.624c6.242-6.24,16.385-6.24,22.625,0
			C192.752,389.052,192.752,399.196,186.512,405.436z"/>
	</g>
</g>
<g>
	<g>
		<rect x="272" y="101.9" width="16" height="64"/>
	</g>
</g>
<g>
</g>
<g>
</g>
<g>
</g>
<g>
</g>
<g>
</g>
<g>
</g>
<g>
</g>
<g>
</g>
<g>
</g>
<g>
</g>
<g>
</g>
<g>
</g>
<g>
</g>
<g>
</g>
<g>
</g>
</svg>
