<?xml version="1.0" encoding="iso-8859-1"?>
<!-- Generator: Adobe Illustrator 19.0.0, SVG Export Plug-In . SVG Version: 6.00 Build 0)  -->
<svg version="1.1" id="Layer_1" xmlns="http://www.w3.org/2000/svg" xmlns:xlink="http://www.w3.org/1999/xlink" x="0px" y="0px"
	 viewBox="0 0 512 512" style="enable-background:new 0 0 512 512;" xml:space="preserve">
<g>
	<g>
		<path d="M439.104,199.356l54.747-54.747c0.016-0.016,0.032-0.032,0.049-0.049c24.114-24.114,24.114-63.351,0-87.466
			c-24.115-24.114-63.352-24.114-87.467,0c-11.681,11.681-18.115,27.213-18.115,43.734c0,11.323,3.025,22.18,8.687,31.652
			l-12.388,12.388l-45.463-45.463V0H0.015v512h339.141V299.305l45.463-45.463l12.403,12.403
			c-14.126,23.737-10.992,54.967,9.412,75.372c12.057,12.057,27.895,18.086,43.733,18.086s31.677-6.029,43.734-18.086
			c24.114-24.115,24.114-63.352,0-87.468L439.104,199.356z M427.941,78.601c6.128-6.128,14.175-9.19,22.225-9.19
			c8.048,0,16.098,3.063,22.225,9.19c12.255,12.255,12.255,32.196,0,44.451c-5.936,5.936-13.83,9.206-22.225,9.206
			c-8.395,0-16.288-3.27-22.225-9.206l-0.01-0.01c-5.93-5.935-9.196-13.824-9.196-22.215
			C418.736,92.432,422.005,84.539,427.941,78.601z M308.738,184.147h-22.508v30.417h22.508v6.184v108.974v151.861h0H30.432V214.564
			H52.94v-30.417H30.432V30.417h278.306v38.571l-7.589-7.589c-24.115-24.114-63.352-24.114-87.467,0l-10.755,10.753l105.81,105.81
			V184.147z M248.723,74.932c10.628-3.041,22.56-0.38,30.917,7.974l59.514,59.514l23.956,23.956l-11.471,11.471L248.723,74.932z
			 M378.995,216.45l-15.885,15.885l-23.955,23.954v-22.943l12.483-12.483l54.487-54.487l12.386-12.386
			c0.756,0.452,1.525,0.882,2.299,1.3c0.217,0.118,0.436,0.23,0.654,0.345c0.613,0.322,1.232,0.634,1.855,0.935
			c0.219,0.105,0.437,0.214,0.658,0.317c0.813,0.38,1.632,0.747,2.462,1.092c0.088,0.036,0.178,0.069,0.267,0.105
			c0.746,0.305,1.499,0.594,2.257,0.87c0.247,0.09,0.496,0.177,0.744,0.264c0.663,0.232,1.33,0.452,2.002,0.661
			c0.207,0.064,0.412,0.133,0.618,0.195c0.788,0.236,1.58,0.46,2.378,0.665L378.995,216.45z M418.526,244.732l-12.399-12.399
			l11.47-11.47l17.14,17.14c-0.727,0.186-1.451,0.386-2.172,0.599c-0.034,0.011-0.069,0.023-0.102,0.033
			c-0.828,0.246-1.651,0.514-2.47,0.795c-0.225,0.077-0.449,0.158-0.674,0.237c-0.687,0.245-1.372,0.503-2.052,0.773
			c-0.18,0.072-0.361,0.139-0.54,0.213c-0.839,0.343-1.674,0.704-2.5,1.084c-0.15,0.069-0.299,0.144-0.449,0.215
			c-0.678,0.319-1.352,0.652-2.02,0.997c-0.232,0.12-0.463,0.24-0.695,0.364c-0.677,0.361-1.35,0.735-2.016,1.122
			c-0.133,0.077-0.268,0.15-0.4,0.228C418.607,244.686,418.566,244.708,418.526,244.732z M472.392,320.11
			c-12.256,12.255-32.196,12.255-44.45,0c-12.255-12.255-12.255-32.197,0-44.452c0.383-0.383,0.774-0.753,1.171-1.112
			c0.053-0.048,0.107-0.09,0.16-0.138c0.746-0.665,1.514-1.292,2.306-1.873c0.041-0.03,0.083-0.057,0.124-0.086
			c0.384-0.279,0.772-0.552,1.166-0.811c0.004-0.003,0.009-0.005,0.013-0.008c0.431-0.284,0.867-0.556,1.308-0.816
			c0.124-0.073,0.251-0.139,0.377-0.21c0.324-0.186,0.648-0.371,0.976-0.543c0.141-0.074,0.285-0.139,0.427-0.211
			c0.316-0.16,0.633-0.322,0.953-0.47c0.251-0.117,0.508-0.221,0.762-0.331c0.214-0.092,0.426-0.191,0.642-0.279
			c0.309-0.126,0.623-0.237,0.936-0.353c0.165-0.061,0.328-0.128,0.494-0.186c0.354-0.124,0.712-0.234,1.07-0.345
			c0.127-0.039,0.251-0.084,0.378-0.122c0.418-0.124,0.839-0.234,1.26-0.34c0.068-0.017,0.136-0.039,0.204-0.055
			c0.447-0.109,0.896-0.206,1.346-0.295c0.045-0.009,0.088-0.02,0.132-0.028c0.494-0.095,0.989-0.179,1.485-0.25
			c0.001,0,0.003,0,0.004-0.001c6.474-0.936,13.186,0.145,19.11,3.241c0.004,0.002,0.009,0.004,0.013,0.006
			c0.45,0.235,0.895,0.483,1.335,0.742c0.006,0.003,0.012,0.006,0.017,0.01c0.4,0.235,0.795,0.484,1.187,0.739
			c0.046,0.029,0.093,0.057,0.139,0.087c0.364,0.239,0.721,0.492,1.077,0.747c0.071,0.051,0.144,0.097,0.215,0.149
			c0.327,0.24,0.648,0.493,0.968,0.747c0.094,0.075,0.193,0.145,0.286,0.221c0.296,0.241,0.585,0.495,0.874,0.748
			c0.113,0.098,0.229,0.192,0.341,0.293c0.261,0.235,0.513,0.483,0.768,0.728c0.142,0.137,0.288,0.267,0.427,0.407
			C484.646,287.913,484.646,307.855,472.392,320.11z"/>
	</g>
</g>
<g>
	<g>
		<rect x="69.423" y="184.146" width="37.717" height="30.417"/>
	</g>
</g>
<g>
	<g>
		<rect x="123.626" y="184.146" width="37.717" height="30.417"/>
	</g>
</g>
<g>
	<g>
		<rect x="177.83" y="184.146" width="37.717" height="30.417"/>
	</g>
</g>
<g>
	<g>
		<rect x="232.033" y="184.146" width="37.717" height="30.417"/>
	</g>
</g>
<g>
	<g>
		<path d="M117.399,245.185c-24.846,0-45.059,20.214-45.059,45.059s20.214,45.058,45.059,45.058
			c24.846,0,45.059-20.213,45.059-45.058S142.245,245.185,117.399,245.185z M117.399,304.884c-8.074,0-14.642-6.568-14.642-14.641
			c0-8.073,6.569-14.642,14.642-14.642c8.074,0,14.642,6.569,14.642,14.642C132.041,298.316,125.472,304.884,117.399,304.884z"/>
	</g>
</g>
<g>
	<g>
		<path d="M221.77,349.557c-24.846,0-45.059,20.214-45.059,45.059s20.213,45.058,45.059,45.058
			c24.846,0,45.059-20.213,45.059-45.058S246.616,349.557,221.77,349.557z M221.77,409.258c-8.074,0-14.642-6.568-14.642-14.641
			c0-8.073,6.568-14.642,14.642-14.642c8.074,0,14.642,6.569,14.642,14.642C236.412,402.69,229.844,409.258,221.77,409.258z"/>
	</g>
</g>
<g>
	<g>
		
			<rect x="53.568" y="327.219" transform="matrix(0.7071 -0.7071 0.7071 0.7071 -192.4631 220.2084)" width="232.031" height="30.417"/>
	</g>
</g>
<g>
</g>
<g>
</g>
<g>
</g>
<g>
</g>
<g>
</g>
<g>
</g>
<g>
</g>
<g>
</g>
<g>
</g>
<g>
</g>
<g>
</g>
<g>
</g>
<g>
</g>
<g>
</g>
<g>
</g>
</svg>
