<?xml version="1.0" encoding="iso-8859-1"?>
<!-- Generator: Adobe Illustrator 19.0.0, SVG Export Plug-In . SVG Version: 6.00 Build 0)  -->
<svg version="1.1" id="Capa_1" xmlns="http://www.w3.org/2000/svg" xmlns:xlink="http://www.w3.org/1999/xlink" x="0px" y="0px"
	 viewBox="0 0 512 512" style="enable-background:new 0 0 512 512;" xml:space="preserve">
<path style="fill:#A38DCE;" d="M280,1.277H8c-4.418,0-8,3.582-8,8v248c0,4.418,3.582,8,8,8h272c22.056,0,40-17.944,40-40v-184
	C320,19.22,302.056,1.277,280,1.277z"/>
<path style="fill:#8C70C2;" d="M280,249.277H8c-4.418,0-8-3.582-8-8v16c0,4.418,3.582,8,8,8h272c22.056,0,40-17.944,40-40v-16
	C320,231.333,302.056,249.277,280,249.277z"/>
<path style="fill:#BBB0AB;" d="M315.597,403.565L272,401.277l97.772-218.712l0,0c31.255,13.849,43.6,51.743,26.5,81.345
	L315.597,403.565z"/>
<path style="fill:#FCB74F;" d="M209.214,426.428L209.214,426.428c-12.529,28.276,0.236,61.356,28.512,73.885l21.943,9.723
	c4.039,1.79,8.765-0.034,10.555-4.073l45.373-102.398l-21.942-9.723C261.339,379.523,223.533,394.112,209.214,426.428z
	 M238.471,439.391c6.03-13.608,20.449-20.937,34.496-18.608l-22.276,50.273C238.592,465.695,233.11,451.49,238.471,439.391z"/>
<path style="fill:#D1C6E7;" d="M504,1.277H360c-22.056,0-40,17.944-40,40v184c0,22.056,17.944,40,40,40h144c4.418,0,8-3.582,8-8
	v-248C512,4.858,508.418,1.277,504,1.277z"/>
<path style="fill:#BAA9DA;" d="M504,249.277H360c-22.056,0-40-17.944-40-40v16c0,22.056,17.944,40,40,40h144c4.418,0,8-3.582,8-8
	v-16C512,245.695,508.418,249.277,504,249.277z"/>
<path style="fill:#DDD8D5;" d="M320.802,403.565L360,393.277l-91.69-206.916c-0.944-2.131-3.504-3.004-5.56-1.905
	c-28.373,15.16-38.996,51.109-22.622,79.454L320.802,403.565z"/>
<path style="fill:#FDC572;" d="M342.745,393.842l-21.942,9.723l45.373,102.398c1.79,4.039,6.516,5.863,10.555,4.073l21.943-9.723
	c28.276-12.529,41.042-45.609,28.513-73.885l0,0C412.866,394.112,375.06,379.523,342.745,393.842z M385.709,471.056l-22.276-50.273
	c14.047-2.329,28.466,5.001,34.496,18.608C403.289,451.49,397.808,465.695,385.709,471.056z"/>
<path style="fill:#988981;" d="M320,360.777c-3.195,0-6.125-2.112-7.117-5.148c-1.004-3.073,0.098-6.517,2.713-8.421
	c5.541-4.034,13.335,1.241,11.675,7.892C326.45,358.392,323.393,360.777,320,360.777z"/>
<g>
	<path style="fill:#8C70C2;" d="M320,62.777c-4.142,0-7.5-3.358-7.5-7.5v-6c0-4.142,3.358-7.5,7.5-7.5s7.5,3.358,7.5,7.5v6
		C327.5,59.419,324.142,62.777,320,62.777z"/>
	<path style="fill:#8C70C2;" d="M320,196.491c-4.142,0-7.5-3.358-7.5-7.5v-11.143c0-4.142,3.358-7.5,7.5-7.5s7.5,3.358,7.5,7.5
		v11.143C327.5,193.133,324.142,196.491,320,196.491z M320,163.062c-4.142,0-7.5-3.358-7.5-7.5v-11.143c0-4.142,3.358-7.5,7.5-7.5
		s7.5,3.358,7.5,7.5v11.143C327.5,159.704,324.142,163.062,320,163.062z M320,129.633c-4.142,0-7.5-3.358-7.5-7.5V110.99
		c0-4.142,3.358-7.5,7.5-7.5s7.5,3.358,7.5,7.5v11.143C327.5,126.276,324.142,129.633,320,129.633z M320,96.205
		c-4.142,0-7.5-3.358-7.5-7.5V77.562c0-4.142,3.358-7.5,7.5-7.5s7.5,3.358,7.5,7.5v11.143C327.5,92.847,324.142,96.205,320,96.205z"
		/>
	<path style="fill:#8C70C2;" d="M320,224.777c-4.142,0-7.5-3.358-7.5-7.5v-6c0-4.142,3.358-7.5,7.5-7.5s7.5,3.358,7.5,7.5v6
		C327.5,221.419,324.142,224.777,320,224.777z"/>
</g>
<g>
	<path style="fill:#FFFFFF;" d="M200,121.777h-10c-12.407,0-22.5-10.093-22.5-22.5s10.093-22.5,22.5-22.5h40
		c4.142,0,7.5-3.358,7.5-7.5s-3.358-7.5-7.5-7.5h-22.5v-12.5c0-4.142-3.358-7.5-7.5-7.5s-7.5,3.358-7.5,7.5v12.5H190
		c-20.678,0-37.5,16.822-37.5,37.5s16.822,37.5,37.5,37.5h10c12.407,0,22.5,10.093,22.5,22.5s-10.093,22.5-22.5,22.5h-40
		c-4.142,0-7.5,3.358-7.5,7.5s3.358,7.5,7.5,7.5h32.5v12.5c0,4.142,3.358,7.5,7.5,7.5s7.5-3.358,7.5-7.5v-13.255
		c17.096-3.484,30-18.635,30-36.745C237.5,138.599,220.678,121.777,200,121.777z"/>
	<path style="fill:#FFFFFF;" d="M442,121.777h-10c-12.407,0-22.5-10.093-22.5-22.5s10.093-22.5,22.5-22.5h40
		c4.142,0,7.5-3.358,7.5-7.5s-3.358-7.5-7.5-7.5h-22.5v-12.5c0-4.142-3.358-7.5-7.5-7.5s-7.5,3.358-7.5,7.5v12.5H432
		c-20.678,0-37.5,16.822-37.5,37.5s16.822,37.5,37.5,37.5h10c12.407,0,22.5,10.093,22.5,22.5s-10.093,22.5-22.5,22.5h-40
		c-4.142,0-7.5,3.358-7.5,7.5s3.358,7.5,7.5,7.5h32.5v12.5c0,4.142,3.358,7.5,7.5,7.5s7.5-3.358,7.5-7.5v-13.255
		c17.096-3.484,30-18.635,30-36.745C479.5,138.599,462.678,121.777,442,121.777z"/>
</g>
<g>
</g>
<g>
</g>
<g>
</g>
<g>
</g>
<g>
</g>
<g>
</g>
<g>
</g>
<g>
</g>
<g>
</g>
<g>
</g>
<g>
</g>
<g>
</g>
<g>
</g>
<g>
</g>
<g>
</g>
</svg>
