<?xml version="1.0" encoding="iso-8859-1"?>
<!-- Generator: Adobe Illustrator 19.0.0, SVG Export Plug-In . SVG Version: 6.00 Build 0)  -->
<svg version="1.1" id="Capa_1" xmlns="http://www.w3.org/2000/svg" xmlns:xlink="http://www.w3.org/1999/xlink" x="0px" y="0px"
	 viewBox="0 0 512 512" style="enable-background:new 0 0 512 512;" xml:space="preserve">
<path style="fill:#A38DCE;" d="M288.063,256.242H7.515V7.757h280.548c17.708,0,32.063,14.355,32.063,32.063v184.36
	C320.125,241.887,305.77,256.242,288.063,256.242z"/>
<path style="fill:#8C70C2;" d="M312.11,232.195H31.562V7.757H7.515v248.485h280.548c15.233,0,27.975-10.626,31.242-24.868
	C316.991,231.906,314.584,232.195,312.11,232.195z"/>
<path style="fill:#BBB0AB;" d="M315.714,394.331l-36.643-16.237l90.923-205.197l0,0c31.316,13.876,43.685,51.844,26.552,81.504
	L315.714,394.331z"/>
<path style="fill:#FCB74F;" d="M209.122,417.239L209.122,417.239c-12.554,28.331,0.236,61.476,28.568,74.03l29.314,12.989
	l48.709-109.927l-21.985-9.742C261.349,370.242,223.469,384.859,209.122,417.239z M238.437,430.228
	c6.042-13.635,20.489-20.978,34.563-18.644l-22.32,50.371C238.558,456.583,233.065,442.35,238.437,430.228z"/>
<path style="fill:#D1C6E7;" d="M504.485,256.242H352.188c-17.708,0-32.063-14.355-32.063-32.063V39.819
	c0-17.708,14.355-32.063,32.063-32.063h152.297V256.242z"/>
<path style="fill:#BAA9DA;" d="M320.125,200.132v24.047c0,17.708,14.355,32.063,32.063,32.063h152.297v-24.047H352.188
	C334.48,232.195,320.125,217.84,320.125,200.132z"/>
<path style="fill:#DDD8D5;" d="M320.929,394.331l36.643-16.237l-90.923-205.197l0,0c-31.316,13.876-43.685,51.844-26.552,81.504
	L320.929,394.331z"/>
<path style="fill:#FDC572;" d="M342.915,384.589l-21.985,9.742l48.709,109.927l29.314-12.989
	c28.331-12.553,41.122-45.698,28.569-74.03l0,0C413.173,384.859,375.293,370.242,342.915,384.589z M385.963,461.955l-22.32-50.371
	c14.074-2.334,28.522,5.011,34.564,18.644C403.577,442.35,398.086,456.583,385.963,461.955z"/>
<path d="M320.125,133.359c-4.15,0-7.515,3.365-7.515,7.515v12.882c0,4.15,3.365,7.515,7.515,7.515s7.515-3.365,7.515-7.515v-12.882
	C327.64,136.724,324.275,133.359,320.125,133.359z"/>
<path d="M320.125,172.007c-4.15,0-7.515,3.365-7.515,7.515v12.882c0,4.15,3.365,7.515,7.515,7.515s7.515-3.365,7.515-7.515v-12.882
	C327.64,175.37,324.275,172.007,320.125,172.007z"/>
<path d="M320.125,56.065c-4.15,0-7.515,3.365-7.515,7.515v12.882c0,4.15,3.365,7.515,7.515,7.515s7.515-3.365,7.515-7.515V63.58
	C327.64,59.43,324.275,56.065,320.125,56.065z"/>
<path d="M320.125,94.712c-4.15,0-7.515,3.365-7.515,7.515v12.882c0,4.15,3.365,7.515,7.515,7.515s7.515-3.365,7.515-7.515v-12.882
	C327.64,98.076,324.275,94.712,320.125,94.712z"/>
<path d="M274.229,404.169c-17.807-2.954-35.35,6.513-42.663,23.014l0,0c-7.05,15.911,0.159,34.592,16.07,41.641
	c3.747,1.661,8.256-0.084,9.914-3.825l22.32-50.371C281.831,410.202,278.993,404.959,274.229,404.169z M247.587,450.386
	c-3.779-4.673-4.878-11.252-2.279-17.114l0,0c3.06-6.906,9.009-11.825,15.948-13.733L247.587,450.386z"/>
<path d="M504.485,0.242H352.188c-13.179,0-24.866,6.481-32.063,16.416c-7.197-9.935-18.884-16.416-32.063-16.416H7.515
	C3.365,0.242,0,3.607,0,7.757v248.485c0,4.15,3.365,7.515,7.515,7.515h229.307l47.93,82.97l-11.125,25.105
	c-29.526-2.404-58.713,13.787-71.374,42.363c-6.885,15.537-7.306,32.827-1.188,48.681c6.118,15.855,18.045,28.378,33.583,35.263
	l29.314,12.988c3.747,1.661,8.256-0.084,9.914-3.825l44.447-100.306l44.446,100.307c1.658,3.743,6.167,5.487,9.914,3.825
	l29.314-12.988c15.537-6.884,27.464-19.408,33.583-35.263c6.118-15.855,5.697-33.144-1.188-48.681
	c-12.662-28.575-41.85-44.764-71.374-42.362l-11.242-25.371c0.42-0.434,48.047-82.705,48.047-82.705h104.664
	c4.15,0,7.515-3.365,7.515-7.515V7.759C512,3.607,508.635,0.242,504.485,0.242z M242.349,210.059
	c3.613-11.092,10.987-20.524,20.703-26.726l84.604,190.936l-23.598,10.456l-77.455-134.081
	C239.502,238.35,237.952,223.557,242.349,210.059z M320.153,247.38c1.695,2.334,3.636,4.476,5.788,6.387l-7.621,17.198
	l-6.659-15.027C314.956,253.495,317.811,250.61,320.153,247.38z M304.678,381.221l-15.692-6.953l5.068-11.437L304.678,381.221z
	 M263.179,494.342l-22.443-9.944c-11.867-5.258-20.977-14.823-25.65-26.934c-4.673-12.11-4.35-25.314,0.908-37.182
	c6.126-13.825,17.269-24.437,31.376-29.881c14.107-5.444,29.49-5.069,43.315,1.057l15.115,6.698L263.179,494.342z M389.273,390.402
	c14.108,5.445,25.25,16.055,31.376,29.881c5.258,11.867,5.581,25.072,0.908,37.182c-4.673,12.11-13.783,21.675-25.65,26.934
	l-22.443,9.944l-42.62-96.186l15.115-6.698C359.784,385.333,375.167,384.957,389.273,390.402z M344.358,329.723l-17.86-40.306
	c0.183-0.296,0.353-0.603,0.498-0.93l11.968-27.011c4.138,1.472,8.587,2.279,13.224,2.279h30.276L344.358,329.723z M496.971,248.727
	H352.188c-13.535,0-24.548-11.013-24.548-24.548v-6.012c0-4.15-3.365-7.515-7.515-7.515s-7.515,3.365-7.515,7.515v6.012
	c0,6.677-2.66,12.892-7.287,17.451l-31.804-71.777c-1.681-3.794-6.12-5.507-9.915-3.825c-16.873,7.477-29.828,21.829-35.545,39.376
	c-4.629,14.212-4.184,29.525,1.055,43.324H15.029V15.271h273.033c13.535,0,24.548,11.013,24.548,24.548
	c0,4.15,3.365,7.515,7.515,7.515s7.515-3.365,7.515-7.515c0-13.535,11.013-24.548,24.548-24.548h144.783V248.727z"/>
<path d="M379.092,464.998c1.658,3.743,6.166,5.487,9.914,3.826c7.699-3.411,13.611-9.625,16.65-17.496
	c3.038-7.871,2.833-16.447-0.579-24.145c-7.311-16.502-24.859-25.969-42.662-23.014c-4.763,0.79-7.603,6.032-5.641,10.457
	L379.092,464.998z M391.335,433.272c1.785,4.028,1.891,8.519,0.299,12.646c-0.633,1.641-1.504,3.144-2.577,4.472l-13.67-30.849
	C382.327,421.447,388.276,426.365,391.335,433.272z"/>
<path d="M325.796,358.682c2.547-1.737,3.839-4.877,3.157-7.902c-0.677-3.004-3.174-5.318-6.218-5.78
	c-3.039-0.462-6.135,1.061-7.645,3.729c-1.591,2.811-1.169,6.43,1.022,8.801C318.572,360.193,322.777,360.72,325.796,358.682z"/>
<path d="M181.855,75.389h40.078c4.15,0,7.515-3.365,7.515-7.515c0-4.15-3.365-7.515-7.515-7.515h-22.544V47.835
	c0-4.15-3.365-7.515-7.515-7.515s-7.515,3.365-7.515,7.515v12.524h-2.505c-20.718,0-37.573,16.855-37.573,37.573
	s16.855,37.573,37.573,37.573h10.02c12.431,0,22.544,10.113,22.544,22.544s-10.113,22.544-22.544,22.544h-40.078
	c-4.15,0-7.515,3.365-7.515,7.515c0,4.15,3.365,7.515,7.515,7.515h32.564v12.524c0,4.15,3.365,7.515,7.515,7.515
	s7.515-3.365,7.515-7.515v-13.281c17.129-3.491,30.059-18.671,30.059-36.817c0-20.718-16.855-37.573-37.573-37.573h-10.02
	c-12.431,0-22.544-10.113-22.544-22.544S169.424,75.389,181.855,75.389z"/>
<path d="M434.348,180.594H394.27c-4.15,0-7.515,3.365-7.515,7.515c0,4.15,3.365,7.515,7.515,7.515h32.564v12.524
	c0,4.15,3.365,7.515,7.515,7.515c4.15,0,7.515-3.365,7.515-7.515v-13.281c17.129-3.491,30.059-18.671,30.059-36.817
	c0-20.718-16.855-37.573-37.573-37.573h-10.02c-12.431,0-22.544-10.113-22.544-22.544s10.113-22.544,22.544-22.544h40.078
	c4.15,0,7.515-3.365,7.515-7.515c0-4.15-3.365-7.515-7.515-7.515h-22.544V47.835c0-4.15-3.365-7.515-7.515-7.515
	c-4.15,0-7.515,3.365-7.515,7.515v12.524h-2.505c-20.718,0-37.573,16.855-37.573,37.573s16.855,37.573,37.573,37.573h10.02
	c12.431,0,22.544,10.113,22.544,22.544S446.78,180.594,434.348,180.594z"/>
<g>
</g>
<g>
</g>
<g>
</g>
<g>
</g>
<g>
</g>
<g>
</g>
<g>
</g>
<g>
</g>
<g>
</g>
<g>
</g>
<g>
</g>
<g>
</g>
<g>
</g>
<g>
</g>
<g>
</g>
</svg>
