<?xml version="1.0" encoding="iso-8859-1"?>
<!-- Generator: Adobe Illustrator 19.0.0, SVG Export Plug-In . SVG Version: 6.00 Build 0)  -->
<svg version="1.1" id="Capa_1" xmlns="http://www.w3.org/2000/svg" xmlns:xlink="http://www.w3.org/1999/xlink" x="0px" y="0px"
	 viewBox="0 0 508 508" style="enable-background:new 0 0 508 508;" xml:space="preserve">
<g>
	<g>
		<path d="M0,57.35v262.2v16.4v65.5h181.2c-8.8,8.6-14.8,20-16.6,32.8h-58v16.4H164h180.3h57.4v-16.4h-58
			c-1.8-12.8-7.8-24.2-16.6-32.8H508v-65.5v-16.4V57.35H0z M181.1,434.25c3.8-18.7,20.4-32.8,40.1-32.8h65.5
			c19.9,0,36.4,14.1,40.2,32.8H181.1z M491.6,385.05H286.8h-65.5H16.4v-49.2h475.2V385.05z M491.6,319.45H16.4V73.65h475.2V319.45z"
			/>
	</g>
</g>
<g>
	<g>
		<rect x="245.8" y="352.25" width="16.4" height="16.4"/>
	</g>
</g>
<g>
	<g>
		<rect x="278.6" y="352.25" width="16.4" height="16.4"/>
	</g>
</g>
<g>
	<g>
		<rect x="213" y="352.25" width="16.4" height="16.4"/>
	</g>
</g>
<g>
	<g>
		<path d="M93.9,221.05h100.8l21.1-73.7H80l-7.7-41H41v16.4h17.8l4.6,24.6l13.8,73.7l6.1,32.8h5c-3.9,4.4-6.4,10.1-6.4,16.4
			c0,13.6,11,24.6,24.6,24.6s24.6-11,24.6-24.6c0-6.3-2.5-12-6.4-16.4h37.4c-3.9,4.4-6.4,10.1-6.4,16.4c0,13.6,11,24.6,24.6,24.6
			c13.6,0,24.6-11,24.6-24.6c0-6.3-2.5-12-6.4-16.4H209v-16.4H97L93.9,221.05z M83.1,163.75H194l-11.7,41H90.8L83.1,163.75z
			 M180.3,262.05c4.5,0,8.2,3.7,8.2,8.2s-3.7,8.2-8.2,8.2s-8.2-3.7-8.2-8.2S175.7,262.05,180.3,262.05z M106.5,262.05
			c4.5,0,8.2,3.7,8.2,8.2s-3.7,8.2-8.2,8.2s-8.2-3.7-8.2-8.2S102,262.05,106.5,262.05z"/>
	</g>
</g>
<g>
	<g>
		<path d="M286.8,98.15v114.7H467V98.15H286.8z M450.7,196.55h-0.1H303.2v-49.2h147.5V196.55z M450.7,130.95h-0.1H303.2v-16.4h147.5
			V130.95z"/>
	</g>
</g>
<g>
	<g>
		<rect x="319.5" y="171.95" width="16.4" height="16.4"/>
	</g>
</g>
<g>
	<g>
		<rect x="352.3" y="171.95" width="16.4" height="16.4"/>
	</g>
</g>
<g>
	<g>
		<rect x="385.1" y="171.95" width="16.4" height="16.4"/>
	</g>
</g>
<g>
</g>
<g>
</g>
<g>
</g>
<g>
</g>
<g>
</g>
<g>
</g>
<g>
</g>
<g>
</g>
<g>
</g>
<g>
</g>
<g>
</g>
<g>
</g>
<g>
</g>
<g>
</g>
<g>
</g>
</svg>
