<svg xmlns="http://www.w3.org/2000/svg" viewBox="0 0 800 800"><defs><style>.a{fill:#96588a;}.b{fill:#ddd;}.c{fill:#fff;}.d{fill:#f90;}</style></defs><title>icon</title><rect class="a" x="-34.4" y="-31.69" width="848.96" height="904.45"/><path d="M692.61,276.16V86.32a7.52,7.52,0,0,0-7.52-7.52H283.54A7.52,7.52,0,0,0,276,86.32v138.6l-83,47.93-25.11-11.12a71.75,71.75,0,0,0-42.36-71.37,63.62,63.62,0,0,0-83.94,32.39l-13,29.31A7.58,7.58,0,0,0,32.48,262l100.31,44.45L32.48,350.86a7.58,7.58,0,0,0-3.83,9.91l13,29.31a63.62,63.62,0,0,0,83.94,32.4,71.75,71.75,0,0,0,42.36-71.37l25.37-11.24c.43.42,82.7,48,82.7,48V713.68a7.52,7.52,0,0,0,7.52,7.52H685.09a7.52,7.52,0,0,0,7.52-7.52V340.28a39.54,39.54,0,0,0-16.42-32.06A39.54,39.54,0,0,0,692.61,276.16ZM89.39,235.68a16.55,16.55,0,0,1,17.11-2.28,24.55,24.55,0,0,1,13.73,15.95Zm17.11,143.75a16.42,16.42,0,0,1-12.64.3,16.62,16.62,0,0,1-4.47-2.58l30.85-13.67A24.54,24.54,0,0,1,106.51,379.43ZM286,314l-17.2-7.62,15-6.66a39.62,39.62,0,0,0,8.56,8.49A39.89,39.89,0,0,0,286,314Z"/><path class="b" d="M291.05,706.17V340.28a24.58,24.58,0,0,1,24.55-24.55h6a7.52,7.52,0,0,0,0-15h-6a24.39,24.39,0,0,1-17.45-7.29l71.78-31.8a7.52,7.52,0,0,0,3.83-9.92,65.12,65.12,0,0,0-82.7-34.49V93.83H677.58V276.16A24.58,24.58,0,0,1,653,300.7a7.52,7.52,0,0,0,0,15,24.58,24.58,0,0,1,24.55,24.55V706.17Z"/><path d="M649.49,181.66V126.33a7.52,7.52,0,0,0-7.51-7.51H325.46a7.52,7.52,0,0,0-7.52,7.51v55.33a7.52,7.52,0,0,0,7.52,7.52H642A7.52,7.52,0,0,0,649.49,181.66Z"/><rect class="c" x="332.97" y="133.84" width="301.49" height="40.3"/><path d="M649.49,272.37V217a7.52,7.52,0,0,0-7.51-7.51H325.46a7.52,7.52,0,0,0-7.52,7.51v55.33a7.52,7.52,0,0,0,7.52,7.52H642A7.52,7.52,0,0,0,649.49,272.37Z"/><path d="M405.23,308.22a7.52,7.52,0,0,0-7.51-7.52H384.83a7.52,7.52,0,0,0,0,15h12.88A7.52,7.52,0,0,0,405.23,308.22Z"/><path d="M366.64,308.22a7.52,7.52,0,0,0-7.51-7.52H346.24a7.52,7.52,0,0,0,0,15h12.88A7.51,7.51,0,0,0,366.64,308.22Z"/><path d="M474.9,300.7H462a7.52,7.52,0,0,0,0,15H474.9a7.52,7.52,0,0,0,0-15Z"/><path d="M443.82,308.22a7.52,7.52,0,0,0-7.51-7.52H423.43a7.52,7.52,0,0,0,0,15h12.88A7.51,7.51,0,0,0,443.82,308.22Z"/><path class="d" d="M149.38,235.46a56.24,56.24,0,0,0-29.88-31.38,48.6,48.6,0,0,0-64.12,24.74l-9.94,22.44,96.19,42.62,6.7-15.11A56.24,56.24,0,0,0,149.38,235.46Zm-13.77,26.86A7.59,7.59,0,0,1,125.15,268L74.78,245.64A7.58,7.58,0,0,1,71,235.73a31.6,31.6,0,0,1,41.64-16.07A39.58,39.58,0,0,1,135.61,262.32Z"/><polygon class="c" points="165.51 277.08 176.95 282.15 158.56 292.77 165.51 277.08"/><path class="c" d="M289.14,234.7a50.1,50.1,0,0,1,67.31,16.45l-190.94,84.6-10.46-23.6Z"/><path class="c" d="M210.06,332.45l40.31-17.86a7.71,7.71,0,0,0,.93.5l27,12A39.37,39.37,0,0,0,276,340.28v30.28Z"/><path class="d" d="M148.32,334.05l-6.7-15.11L45.44,361.56,55.38,384a48.6,48.6,0,0,0,64.12,24.74,56.61,56.61,0,0,0,28.82-74.69ZM112.6,393.17A31.59,31.59,0,0,1,71,377.1a7.58,7.58,0,0,1,3.83-9.91l50.37-22.32a7.59,7.59,0,0,1,10.46,5.64A39.58,39.58,0,0,1,112.6,393.17Z"/><path d="M189,317a7.51,7.51,0,1,0-7.9-3.16A7.57,7.57,0,0,0,189,317Z"/><path d="M649.49,402.76V347.43a7.52,7.52,0,0,0-7.51-7.51H325.46a7.52,7.52,0,0,0-7.52,7.51v55.33a7.52,7.52,0,0,0,7.52,7.52H642A7.52,7.52,0,0,0,649.49,402.76Z"/><rect class="c" x="332.97" y="354.94" width="301.49" height="40.3"/><path d="M649.49,493.47V438.14a7.52,7.52,0,0,0-7.51-7.51H325.46a7.52,7.52,0,0,0-7.52,7.51v55.33a7.52,7.52,0,0,0,7.52,7.52H642A7.52,7.52,0,0,0,649.49,493.47Z"/><rect class="c" x="332.97" y="445.65" width="301.49" height="40.3"/><path d="M649.49,584.18V528.85a7.52,7.52,0,0,0-7.51-7.51H325.46a7.52,7.52,0,0,0-7.52,7.51v55.33a7.52,7.52,0,0,0,7.52,7.52H642A7.52,7.52,0,0,0,649.49,584.18Z"/><rect class="c" x="332.97" y="536.36" width="301.49" height="40.3"/><path d="M649.49,674.89V619.55A7.52,7.52,0,0,0,642,612H325.46a7.52,7.52,0,0,0-7.52,7.51v55.33a7.52,7.52,0,0,0,7.52,7.52H642A7.52,7.52,0,0,0,649.49,674.89Z"/><rect class="d" x="332.97" y="627.07" width="301.49" height="40.3"/><path class="c" d="M369.93,261.61l-7.31,3.24H634.46v-40.3H351.25a65.19,65.19,0,0,1,22.5,27.15A7.52,7.52,0,0,1,369.93,261.61Z"/><path d="M513.49,300.7H500.61a7.52,7.52,0,0,0,0,15h12.88a7.52,7.52,0,0,0,0-15Z"/><path d="M552.09,300.7H539.2a7.52,7.52,0,0,0,0,15h12.88a7.52,7.52,0,0,0,0-15Z"/><path d="M590.68,300.7H577.8a7.52,7.52,0,0,0,0,15h12.88a7.52,7.52,0,0,0,0-15Z"/><path d="M629.27,300.7H616.39a7.52,7.52,0,1,0,0,15h12.88a7.52,7.52,0,0,0,0-15Z"/></svg>